<svg version="1.1"
	 xmlns="http://www.w3.org/2000/svg" xmlns:xlink="http://www.w3.org/1999/xlink" xmlns:a="http://ns.adobe.com/AdobeSVGViewerExtensions/3.0/"
	 x="0px" y="0px" width="50px" height="50px" viewBox="0 0 50 50" enable-background="new 0 0 50 50" xml:space="preserve">
<defs>
</defs>
<path fill="#231F20" d="M15.352,19.401v2.683h-5.271V20.21c-1.461,1.418-3.091,2.127-4.89,2.127c-1.397,0-2.612-0.455-3.644-1.365
	C0.516,20.062,0,18.898,0,17.48c0-1.429,0.548-2.614,1.643-3.556c1.095-0.942,2.416-1.413,3.961-1.413
	c1.439,0,2.831,0.434,4.175,1.302v-1.524c0-0.783-0.074-1.387-0.222-1.81c-0.148-0.423-0.495-0.804-1.04-1.143
	C7.972,8.996,7.261,8.827,6.382,8.827c-1.514,0-2.609,0.603-3.286,1.81L0.206,9.875c1.281-2.392,3.493-3.588,6.636-3.588
	c1.154,0,2.151,0.156,2.993,0.468c0.841,0.312,1.469,0.714,1.881,1.207c0.413,0.492,0.691,1.024,0.833,1.596
	c0.143,0.572,0.214,1.482,0.214,2.731v7.112H15.352z M9.78,16.368c-1.302-1.016-2.62-1.524-3.953-1.524
	c-0.836,0-1.535,0.243-2.096,0.73c-0.561,0.487-0.841,1.117-0.841,1.889c0,0.72,0.246,1.323,0.738,1.81s1.162,0.73,2.008,0.73
	c1.461,0,2.842-0.614,4.144-1.842V16.368z"/>
<path fill="#231F20" d="M15.864,22.084v-2.683h2.731V2.683h-2.731V0h5.684v8.891c1.514-1.736,3.371-2.604,5.572-2.604
	c2.117,0,3.892,0.728,5.326,2.183c1.434,1.455,2.151,3.374,2.151,5.755c0,2.286-0.701,4.21-2.104,5.771
	c-1.402,1.561-3.199,2.342-5.39,2.342c-1.228,0-2.35-0.265-3.366-0.794c-1.016-0.529-1.746-1.117-2.191-1.762v2.302H15.864z
	 M21.643,14.431c0,1.598,0.49,2.866,1.469,3.802s2.109,1.405,3.39,1.405c1.344,0,2.503-0.497,3.477-1.492
	c0.974-0.995,1.461-2.328,1.461-4.001c0-1.619-0.484-2.876-1.453-3.771c-0.968-0.894-2.104-1.342-3.405-1.342
	c-1.281,0-2.424,0.463-3.429,1.389C22.145,11.349,21.643,12.685,21.643,14.431z"/>
<path fill="#231F20" d="M49.508,6.71v5.811h-2.699c-0.138-1.111-0.59-1.963-1.357-2.556c-0.767-0.593-1.659-0.889-2.675-0.889
	c-1.355,0-2.455,0.479-3.302,1.437s-1.27,2.215-1.27,3.771c0,1.45,0.402,2.728,1.207,3.834s1.969,1.659,3.493,1.659
	c2.117,0,3.651-1.005,4.604-3.016L50,17.935c-1.376,3.059-3.784,4.588-7.224,4.588c-2.434,0-4.35-0.831-5.747-2.493
	c-1.397-1.662-2.096-3.577-2.096-5.747c0-2.318,0.762-4.231,2.286-5.739s3.281-2.262,5.271-2.262c1.704,0,3.143,0.503,4.318,1.508
	V6.71H49.508z"/>
<path fill="#231F20" d="M8.782,36.556l-3.134,3.558h2.041v2.771H0v-2.771h2.336l4.767-5.382l-4.554-4.947H0.41v-2.771h7.443v2.771
	H5.878l2.853,3.11l2.754-3.11H9.87v-2.771h7.493v2.771h-2.615l-4.345,4.932l4.951,5.397h2.008v2.771H9.87v-2.771h2.189L8.782,36.556
	z"/>
<path fill="#231F20" d="M26.025,42.606l-5.214-12.821h-2.64v-2.771h7.853v2.771h-1.902l3.427,8.788l3.361-8.788h-2.099v-2.771h7.689
	v2.771H34.14L26.287,50h-5.263v-2.722h3.099L26.025,42.606z"/>
<path fill="#231F20" d="M36.343,42.884v-2.59l9.947-10.706h-6.521v3.05h-2.656v-5.624H50v2.771l-9.986,10.509h7.264v-3.246H50v5.837
	H36.343z"/>
</svg>
