<svg version="1.1"
	 xmlns="http://www.w3.org/2000/svg" xmlns:xlink="http://www.w3.org/1999/xlink" xmlns:a="http://ns.adobe.com/AdobeSVGViewerExtensions/3.0/"
	 x="0px" y="0px" width="50px" height="50px" viewBox="0 0 50 50" enable-background="new 0 0 50 50" xml:space="preserve">
<defs>
</defs>
<path fill="#231F20" d="M49.952,26.12C49.964,25.797,50,25.481,50,25.156c0-2.513-0.377-4.935-1.059-7.225l-4.089-0.569
	c-0.569-1.466-1.277-2.862-2.137-4.151l1.616-4.002c-1.64-2.01-3.591-3.747-5.767-5.165l-3.485,2.202
	C33.515,5.4,31.826,4.764,30.058,4.33l-1.287-4.014C27.538,0.128,26.285,0,25,0s-2.538,0.128-3.771,0.316L19.942,4.33
	c-1.768,0.434-3.457,1.069-5.021,1.916l-3.486-2.202C9.259,5.462,7.308,7.199,5.668,9.209l1.617,4.002
	c-0.86,1.289-1.568,2.684-2.138,4.151L1.059,17.93C0.377,20.22,0,22.643,0,25.156c0,0.326,0.036,0.642,0.048,0.964l3.862,2.056
	c0.167,1.187,0.41,2.348,0.761,3.465l-2.783,3.097c1.125,2.745,2.732,5.232,4.695,7.388l4.288-0.927
	c0.636,0.568,1.298,1.107,1.999,1.596l-0.157,4.255c2.596,1.478,5.481,2.487,8.548,2.951l2.66-3.441
	c0.36,0.018,0.714,0.055,1.078,0.055c0.364,0,0.719-0.037,1.078-0.055L28.738,50c3.067-0.464,5.953-1.473,8.549-2.951l-0.157-4.255
	c0.701-0.489,1.363-1.028,1.999-1.596l4.288,0.927c1.963-2.156,3.569-4.642,4.695-7.387l-2.783-3.097
	c0.351-1.116,0.595-2.278,0.761-3.465L49.952,26.12z M25,41.061C16.185,41.061,9.039,33.87,9.039,25
	c0-8.87,7.146-16.061,15.962-16.061c8.815,0,15.961,7.191,15.961,16.061C40.961,33.87,33.815,41.061,25,41.061z"/>
</svg>
